<svg width="256" height="24" viewBox="0 0 256 24" fill="none" xmlns="http://www.w3.org/2000/svg">
<path d="M90.62 3.94378V17.762H88.9467V3.94378H90.62ZM97.8783 17.762H93.6141V3.94378H98.0672C99.4076 3.94378 100.555 4.22041 101.508 4.77368C102.462 5.32245 103.193 6.11187 103.701 7.14193C104.209 8.1675 104.463 9.39549 104.463 10.8259C104.463 12.2653 104.207 13.5045 103.694 14.5436C103.182 15.5781 102.435 16.3743 101.454 16.9321C100.474 17.4853 99.2817 17.762 97.8783 17.762ZM95.2873 16.2776H97.7703C98.9128 16.2776 99.8597 16.0572 100.611 15.6164C101.362 15.1756 101.922 14.5481 102.291 13.7339C102.66 12.9198 102.844 11.9504 102.844 10.8259C102.844 9.71035 102.662 8.75001 102.298 7.94485C101.933 7.13519 101.389 6.51445 100.665 6.08263C99.9406 5.64631 99.0388 5.42816 97.9592 5.42816H95.2873V16.2776ZM106.909 17.762V3.94378H115.249V5.42816H108.583V10.0972H114.817V11.5816H108.583V16.2776H115.357V17.762H106.909ZM128.861 3.94378V17.762H127.242L119.712 6.91253H119.577V17.762H117.904V3.94378H119.523L127.08 14.8202H127.215V3.94378H128.861ZM131.093 5.42816V3.94378H141.456V5.42816H137.111V17.762H135.438V5.42816H131.093ZM145.351 3.94378V17.762H143.678V3.94378H145.351ZM147.59 5.42816V3.94378H157.953V5.42816H153.608V17.762H151.935V5.42816H147.59ZM158.987 3.94378H160.903L164.736 10.3941H164.898L168.73 3.94378H170.646L165.653 12.0674V17.762H163.98V12.0674L158.987 3.94378ZM184.989 7.39833C184.908 6.71461 184.58 6.18384 184.004 5.806C183.428 5.42816 182.722 5.23924 181.885 5.23924C181.273 5.23924 180.738 5.33819 180.279 5.53611C179.825 5.73403 179.47 6.00616 179.213 6.35252C178.961 6.69887 178.836 7.09245 178.836 7.53327C178.836 7.90211 178.923 8.21923 179.099 8.48462C179.279 8.74551 179.508 8.96367 179.787 9.13909C180.066 9.31002 180.358 9.45171 180.664 9.56416C180.97 9.67212 181.251 9.75983 181.507 9.8273L182.911 10.2051C183.271 10.2996 183.671 10.43 184.112 10.5965C184.557 10.7629 184.982 10.9901 185.387 11.2779C185.796 11.5613 186.134 11.9257 186.399 12.371C186.664 12.8163 186.797 13.3628 186.797 14.0105C186.797 14.7572 186.601 15.4319 186.21 16.0347C185.823 16.6374 185.257 17.1165 184.51 17.4718C183.768 17.8272 182.866 18.0049 181.804 18.0049C180.815 18.0049 179.958 17.8452 179.234 17.5258C178.514 17.2064 177.947 16.7611 177.533 16.1899C177.124 15.6186 176.892 14.9551 176.838 14.1995H178.566C178.611 14.7212 178.786 15.1531 179.092 15.4949C179.402 15.8323 179.794 16.0842 180.266 16.2506C180.743 16.4125 181.255 16.4935 181.804 16.4935C182.443 16.4935 183.017 16.39 183.525 16.1831C184.033 15.9717 184.436 15.6793 184.733 15.306C185.029 14.9282 185.178 14.4873 185.178 13.9836C185.178 13.5247 185.05 13.1514 184.793 12.8635C184.537 12.5756 184.2 12.3417 183.781 12.1618C183.363 11.9819 182.911 11.8245 182.425 11.6895L180.725 11.2037C179.645 10.8934 178.791 10.4503 178.161 9.87453C177.531 9.29878 177.216 8.54534 177.216 7.61424C177.216 6.84056 177.425 6.16584 177.844 5.59009C178.267 5.00983 178.833 4.56002 179.544 4.24066C180.259 3.91679 181.058 3.75486 181.939 3.75486C182.83 3.75486 183.622 3.91454 184.314 4.23391C185.007 4.54878 185.556 4.98059 185.961 5.52936C186.37 6.07813 186.586 6.70112 186.608 7.39833H184.989ZM189.187 17.762V3.94378H197.527V5.42816H190.861V10.0972H197.095V11.5816H190.861V16.2776H197.635V17.762H189.187ZM200.182 17.762V3.94378H204.851C205.93 3.94378 206.816 4.1282 207.509 4.49705C208.202 4.86139 208.715 5.36293 209.048 6.00166C209.38 6.6404 209.547 7.36684 209.547 8.181C209.547 8.99515 209.38 9.7171 209.048 10.3468C208.715 10.9766 208.204 11.4714 207.516 11.8312C206.828 12.1866 205.948 12.3642 204.878 12.3642H201.099V10.8529H204.824C205.562 10.8529 206.155 10.7449 206.605 10.529C207.059 10.3131 207.388 10.0072 207.59 9.61139C207.797 9.21106 207.901 8.73426 207.901 8.181C207.901 7.62773 207.797 7.14418 207.59 6.73036C207.383 6.31653 207.053 5.99717 206.598 5.77226C206.144 5.54286 205.544 5.42816 204.797 5.42816H201.855V17.762H200.182ZM206.686 11.5546L210.087 17.762H208.143L204.797 11.5546H206.686ZM212.225 3.94378L216.328 15.5759H216.49L220.592 3.94378H222.346L217.272 17.762H215.545L210.471 3.94378H212.225ZM224.138 17.762V3.94378H232.477V5.42816H225.811V10.0972H232.045V11.5816H225.811V16.2776H232.585V17.762H224.138ZM235.132 17.762V3.94378H239.801C240.881 3.94378 241.767 4.1282 242.459 4.49705C243.152 4.86139 243.665 5.36293 243.998 6.00166C244.331 6.6404 244.497 7.36684 244.497 8.181C244.497 8.99515 244.331 9.7171 243.998 10.3468C243.665 10.9766 243.154 11.4714 242.466 11.8312C241.778 12.1866 240.899 12.3642 239.828 12.3642H236.05V10.8529H239.774C240.512 10.8529 241.105 10.7449 241.555 10.529C242.01 10.3131 242.338 10.0072 242.54 9.61139C242.747 9.21106 242.851 8.73426 242.851 8.181C242.851 7.62773 242.747 7.14418 242.54 6.73036C242.333 6.31653 242.003 5.99717 241.549 5.77226C241.094 5.54286 240.494 5.42816 239.747 5.42816H236.805V17.762H235.132ZM241.636 11.5546L245.037 17.762H243.094L239.747 11.5546H241.636Z" fill="black"/>
<g clip-path="url(#clip0_2325_2)">
<path d="M11.8297 16.247C11.8186 16.247 11.8069 16.247 11.7958 16.2456C11.5502 16.2299 11.3409 16.0498 11.2761 15.7984L9.41979 8.57541L8.46939 11.9446C8.39657 12.202 8.17316 12.3788 7.91952 12.3788H4.35861C4.0414 12.3788 3.78467 12.1064 3.78467 11.7698C3.78467 11.4332 4.0414 11.1608 4.35861 11.1608H7.49245L8.89583 6.18718C8.96866 5.92917 9.19206 5.75302 9.44571 5.75302C9.44818 5.75302 9.45003 5.75302 9.45311 5.75302C9.70923 5.7563 9.93201 5.939 9.99928 6.20159L11.9365 13.7382L12.7758 11.5406C12.8634 11.3107 13.0739 11.1601 13.3078 11.1601H16.1608C16.478 11.1601 16.7348 11.4325 16.7348 11.7691C16.7348 12.1057 16.478 12.3781 16.1608 12.3781H13.6941L12.3617 15.8665C12.2734 16.097 12.0624 16.247 11.8303 16.247H11.8297Z" fill="black"/>
<path d="M10.2599 21.7031C4.69822 21.7031 0.17334 16.9018 0.17334 11.0003C0.17334 5.09883 4.69822 0.297485 10.2599 0.297485C15.8216 0.297485 20.3471 5.09883 20.3471 11.0003C20.3471 16.9018 15.8222 21.7031 10.2599 21.7031ZM10.2599 1.51419C5.33079 1.51419 1.32061 5.76939 1.32061 10.9997C1.32061 16.2299 5.33079 20.4851 10.2599 20.4851C15.189 20.4851 19.1992 16.2299 19.1992 10.9997C19.1992 5.76939 15.189 1.51419 10.2599 1.51419Z" fill="black"/>
<path d="M29.605 18.0229L25.5688 3.1669H27.9671L30.1147 11.6814C30.248 12.2067 30.3714 12.7518 30.4844 13.3166C30.5973 13.882 30.709 14.453 30.8195 15.0313C30.9293 15.6097 31.0343 16.188 31.1342 16.7664H30.7942C30.9009 16.188 31.0108 15.6097 31.1237 15.0313C31.2367 14.453 31.3533 13.8814 31.4737 13.3166C31.5934 12.7518 31.7236 12.2067 31.8631 11.6814L34.0712 3.1669H36.5688L38.7565 11.6814C38.8966 12.2067 39.0262 12.7518 39.146 13.3166C39.2657 13.882 39.3842 14.453 39.5008 15.0313C39.6168 15.6097 39.7285 16.188 39.8353 16.7664H39.4761C39.5823 16.188 39.689 15.6097 39.7958 15.0313C39.902 14.453 40.0167 13.8814 40.1408 13.3166C40.2636 12.7518 40.3858 12.2067 40.5055 11.6814L42.6532 3.1669H45.0711L41.0153 18.0229H38.3881L36.0208 9.21892C35.8405 8.52786 35.6739 7.77643 35.5215 6.96589C35.3678 6.15472 35.2117 5.26472 35.0518 4.29403H35.5715C35.4048 5.22468 35.2536 6.08574 35.1166 6.87596C34.9803 7.6668 34.8087 8.4484 34.6019 9.21892L32.2445 18.0229H29.6074H29.605Z" fill="black"/>
<path d="M50.8516 18.2725C49.7395 18.2725 48.7737 18.0963 47.9547 17.744C47.1352 17.3917 46.494 16.8885 46.0311 16.2338C45.5683 15.579 45.3134 14.7999 45.2671 13.8957H47.5548C47.6017 14.4341 47.7758 14.8794 48.0794 15.2317C48.3824 15.584 48.7768 15.8464 49.2637 16.0194C49.7494 16.1925 50.2758 16.2787 50.8417 16.2787C51.4749 16.2787 52.0359 16.1808 52.5253 15.9849C53.0147 15.7891 53.4029 15.5094 53.6892 15.1473C53.9756 14.7851 54.1188 14.3645 54.1188 13.8859C54.1188 13.4535 53.9941 13.1 53.7441 12.824C53.4942 12.5481 53.1579 12.319 52.7351 12.1361C52.3124 11.9531 51.8304 11.7918 51.2916 11.6526L49.5531 11.174C48.3343 10.8482 47.3839 10.3665 46.7007 9.72843C46.0181 9.09034 45.6769 8.26254 45.6769 7.24566C45.6769 6.3883 45.9083 5.63934 46.3712 4.99756C46.834 4.35639 47.4635 3.85811 48.259 3.50211C49.0551 3.14672 49.9524 2.96872 50.9516 2.96872C51.9507 2.96872 52.8684 3.14672 53.6442 3.50211C54.4199 3.85811 55.029 4.34468 55.4728 4.96307C55.9153 5.58145 56.1467 6.28544 56.167 7.0769H53.949C53.8756 6.39877 53.5615 5.87401 53.0054 5.50138C52.4488 5.12936 51.7483 4.94274 50.9022 4.94274C50.303 4.94274 49.7815 5.03574 49.3384 5.22175C48.8953 5.40776 48.5528 5.66521 48.3096 5.99411C48.0664 6.32301 47.9449 6.69688 47.9449 7.1157C47.9449 7.5875 48.0899 7.96813 48.3793 8.25762C48.6694 8.5471 49.0224 8.77622 49.4384 8.9456C49.8543 9.11498 50.2524 9.24986 50.6325 9.34902L52.081 9.72781C52.5537 9.8473 53.0412 10.0087 53.5448 10.2113C54.0478 10.4146 54.5119 10.6769 54.9383 10.9991C55.3648 11.3218 55.7091 11.7203 55.9726 12.1952C56.2355 12.6707 56.367 13.2441 56.367 13.9148C56.367 14.7525 56.1504 15.5002 55.7178 16.158C55.2845 16.8164 54.6569 17.3332 53.8342 17.7089C53.0116 18.084 52.0174 18.2725 50.8522 18.2725H50.8516Z" fill="black"/>
<path d="M64.0504 18.2224C62.7643 18.2224 61.6139 17.9181 60.5987 17.3102C59.5829 16.7023 58.7837 15.8283 58.2005 14.6883C57.6179 13.5482 57.3267 12.1876 57.3267 10.6053C57.3267 9.02305 57.6179 7.65263 58.2005 6.51257C58.7831 5.3725 59.5829 4.49667 60.5987 3.88506C61.6139 3.27345 62.7643 2.96796 64.0504 2.96796C65.3365 2.96796 66.4826 3.27345 67.4916 3.88506C68.5006 4.49667 69.2961 5.3725 69.8793 6.51257C70.4619 7.65263 70.7532 9.01689 70.7532 10.6053C70.7532 12.1938 70.4613 13.5482 69.8793 14.6883C69.2961 15.8283 68.5 16.7023 67.4916 17.3102C66.4826 17.9188 65.3353 18.2224 64.0504 18.2224ZM64.0504 16.1486C64.8959 16.1486 65.6537 15.938 66.3227 15.5155C66.9917 15.0935 67.5218 14.4684 67.9113 13.6412C68.3007 12.8134 68.4951 11.8015 68.4951 10.6053C68.4951 9.40923 68.3007 8.37695 67.9113 7.54978C67.5218 6.72198 66.9917 6.09744 66.3227 5.67492C65.6537 5.25301 64.8959 5.04175 64.0504 5.04175C63.2049 5.04175 62.4354 5.25486 61.7627 5.67985C61.09 6.10545 60.5586 6.73184 60.1692 7.55963C59.7798 8.38681 59.5854 9.40246 59.5854 10.6053C59.5854 11.8082 59.7798 12.8122 60.1692 13.6363C60.5586 14.4604 61.09 15.0855 61.7627 15.5105C62.4354 15.9361 63.1975 16.1486 64.0504 16.1486Z" fill="black"/>
<path d="M71.6839 18.0229V16.3777L76.7389 11.1634C77.2586 10.6183 77.6912 10.1366 78.0374 9.71781C78.3836 9.29898 78.6472 8.89741 78.8267 8.51122C79.0069 8.12566 79.097 7.71361 79.097 7.27508C79.097 6.7768 78.9823 6.34812 78.7521 5.98904C78.5225 5.62996 78.209 5.35464 77.8128 5.16186C77.4166 4.96908 76.9654 4.87238 76.4588 4.87238C75.9521 4.87238 75.4732 4.98078 75.0801 5.19635C74.6876 5.41192 74.3839 5.7168 74.171 6.10853C73.9581 6.50087 73.8513 6.96281 73.8513 7.49434H71.6636C71.6636 6.59079 71.8728 5.7981 72.2931 5.11628C72.7127 4.43507 73.2854 3.90662 74.0112 3.53091C74.7369 3.15581 75.5664 2.96796 76.4989 2.96796C77.4314 2.96796 78.275 3.15396 78.9915 3.52598C79.7074 3.89861 80.2684 4.40182 80.6745 5.03683C81.0805 5.67184 81.2842 6.39123 81.2842 7.19562C81.2842 7.74071 81.183 8.27225 80.9799 8.79085C80.7769 9.30946 80.4202 9.89396 79.9111 10.5456C79.4019 11.1972 78.6842 11.9881 77.7585 12.9187L74.8412 15.9601V16.0796H81.515V18.0241H71.6846L71.6839 18.0229Z" fill="black"/>
</g>
<defs>
<clipPath id="clip0_2325_2">
<rect width="80.9999" height="22" fill="white"/>
</clipPath>
</defs>
</svg>
